<?xml version="1.0" encoding="utf-8"?>
<svg viewBox="0 0 300 400" width="300" height="400" xmlns="http://www.w3.org/2000/svg" xmlns:bx="https://boxy-svg.com">
  <path style="stroke-width: 3px; stroke: rgba(0, 0, 0, 0); fill: rgb(54, 169, 206);" d="M 0 0 L 0 400 L 300 400 L 300 100 L 200 0 L 0 0 Z"/>
  <path style="stroke: rgba(0, 0, 0, 0); fill: rgb(22, 137, 174);" d="M 200 0 L 200 100 L 300 100"/>
  <ellipse style="stroke: rgba(0, 0, 0, 0); fill: rgb(22, 137, 174);" cx="150" cy="200" rx="70" ry="70"/>
  <g transform="matrix(0.555537, 0, 0, 0.581389, 75.03302, 175.024445)" style="">
    <path d="M 107.752 -17.24 C 107.752 9.335 107.752 38.713 107.752 65.288 C 101.515 64.091 93.859 65.669 87.032 69.557 C 74.9 76.475 68.85 88.561 73.521 96.549 C 78.191 104.54 91.805 105.407 103.943 98.489 C 113.074 93.271 119.07 84.879 118.998 77.42 L 119.026 77.42 L 119.026 7.804 L 186.674 7.804 L 186.674 65.288 C 180.437 64.091 172.781 65.669 165.954 69.557 C 153.822 76.475 147.773 88.561 152.443 96.549 C 157.112 104.54 170.727 105.407 182.865 98.489 C 192.218 93.145 198.258 84.49 197.909 76.922 L 197.947 76.922 L 197.947 -17.242 L 107.752 -17.24 Z" style="fill: rgb(54, 169, 206);" bx:origin="0.356656 0.5"/>
  </g>
  <g transform="matrix(0.481109, 0.27777, -0.290694, 0.503497, 15.375398, 8.697696)" style="">
    <path d="M 107.752 -17.24 C 107.752 9.335 107.752 38.713 107.752 65.288 C 101.515 64.091 93.859 65.669 87.032 69.557 C 74.9 76.475 68.85 88.561 73.521 96.549 C 78.191 104.54 91.805 105.407 103.943 98.489 C 113.074 93.271 119.07 84.879 118.998 77.42 L 119.026 77.42 L 119.026 7.804 L 186.674 7.804 L 186.674 65.288 C 180.437 64.091 172.781 65.669 165.954 69.557 C 153.822 76.475 147.773 88.561 152.443 96.549 C 157.112 104.54 170.727 105.407 182.865 98.489 C 192.218 93.145 198.258 84.49 197.909 76.922 L 197.947 76.922 L 197.947 -17.242 L 107.752 -17.24 Z" style="fill: rgb(22, 137, 174);" bx:origin="0.356656 0.5"/>
  </g>
  <g transform="matrix(0.481109, 0.27777, -0.290694, 0.503497, 15.375398, 268.697693)" style="">
    <path d="M 107.752 -17.24 C 107.752 9.335 107.752 38.713 107.752 65.288 C 101.515 64.091 93.859 65.669 87.032 69.557 C 74.9 76.475 68.85 88.561 73.521 96.549 C 78.191 104.54 91.805 105.407 103.943 98.489 C 113.074 93.271 119.07 84.879 118.998 77.42 L 119.026 77.42 L 119.026 7.804 L 186.674 7.804 L 186.674 65.288 C 180.437 64.091 172.781 65.669 165.954 69.557 C 153.822 76.475 147.773 88.561 152.443 96.549 C 157.112 104.54 170.727 105.407 182.865 98.489 C 192.218 93.145 198.258 84.49 197.909 76.922 L 197.947 76.922 L 197.947 -17.242 L 107.752 -17.24 Z" style="fill: rgb(22, 137, 174);" bx:origin="0.356656 0.5"/>
  </g>
  <g transform="matrix(0.48111, -0.277768, 0.290694, 0.503497, 150.399658, 343.664642)" style="">
    <path d="M 107.752 -17.24 C 107.752 9.335 107.752 38.713 107.752 65.288 C 101.515 64.091 93.859 65.669 87.032 69.557 C 74.9 76.475 68.85 88.561 73.521 96.549 C 78.191 104.54 91.805 105.407 103.943 98.489 C 113.074 93.271 119.07 84.879 118.998 77.42 L 119.026 77.42 L 119.026 7.804 L 186.674 7.804 L 186.674 65.288 C 180.437 64.091 172.781 65.669 165.954 69.557 C 153.822 76.475 147.773 88.561 152.443 96.549 C 157.112 104.54 170.727 105.407 182.865 98.489 C 192.218 93.145 198.258 84.49 197.909 76.922 L 197.947 76.922 L 197.947 -17.242 L 107.752 -17.24 Z" style="fill: rgb(22, 137, 174);" bx:origin="0.356656 0.5"/>
  </g>
  <g transform="matrix(0.48111, -0.277768, 0.290694, 0.503497, 220.399658, 213.664642)" style="">
    <path d="M 107.752 -17.24 C 107.752 9.335 107.752 38.713 107.752 65.288 C 101.515 64.091 93.859 65.669 87.032 69.557 C 74.9 76.475 68.85 88.561 73.521 96.549 C 78.191 104.54 91.805 105.407 103.943 98.489 C 113.074 93.271 119.07 84.879 118.998 77.42 L 119.026 77.42 L 119.026 7.804 L 186.674 7.804 L 186.674 65.288 C 180.437 64.091 172.781 65.669 165.954 69.557 C 153.822 76.475 147.773 88.561 152.443 96.549 C 157.112 104.54 170.727 105.407 182.865 98.489 C 192.218 93.145 198.258 84.49 197.909 76.922 L 197.947 76.922 L 197.947 -17.242 L 107.752 -17.24 Z" style="fill: rgb(22, 137, 174);" bx:origin="0.356656 0.5"/>
  </g>
  <g transform="matrix(0.481109, 0.27777, -0.290694, 0.503497, -64.624603, 138.697693)" style="">
    <path d="M 107.752 -17.24 C 107.752 9.335 107.752 38.713 107.752 65.288 C 101.515 64.091 93.859 65.669 87.032 69.557 C 74.9 76.475 68.85 88.561 73.521 96.549 C 78.191 104.54 91.805 105.407 103.943 98.489 C 113.074 93.271 119.07 84.879 118.998 77.42 L 119.026 77.42 L 119.026 7.804 L 186.674 7.804 L 186.674 65.288 C 180.437 64.091 172.781 65.669 165.954 69.557 C 153.822 76.475 147.773 88.561 152.443 96.549 C 157.112 104.54 170.727 105.407 182.865 98.489 C 192.218 93.145 198.258 84.49 197.909 76.922 L 197.947 76.922 L 197.947 -17.242 L 107.752 -17.24 Z" style="fill: rgb(22, 137, 174);" bx:origin="0.356656 0.5"/>
  </g>
</svg>