<?xml version="1.0" encoding="utf-8"?>
<svg viewBox="0 0 300 400" width="300" height="400" xmlns="http://www.w3.org/2000/svg">
  <path style="stroke-width: 3px; stroke: rgba(0, 0, 0, 0); fill: rgb(178, 58, 238);" d="M 0 0 L 0 400 L 300 400 L 300 100 L 200 0 L 0 0 Z"/>
  <path style="stroke: rgba(0, 0, 0, 0); fill: rgb(146, 26, 206);" d="M 200 0 L 200 100 L 300 100"/>
  <ellipse style="stroke: rgba(0, 0, 0, 0); fill: rgb(146, 26, 206);" cx="150" cy="200" rx="70" ry="70"/>
  <rect x="6.317" y="54.446" width="6.064" height="23.733" style="stroke: rgba(179, 179, 179, 0); fill: rgb(178, 58, 238);" transform="matrix(0.68755, 0.726137, -0.685583, 0.73038, 167.410385, 167.971985)"/>
  <ellipse style="stroke: rgba(0, 0, 0, 0); fill: rgb(178, 58, 238);" cx="658.082" cy="234.547" rx="26.48" ry="10.265" transform="matrix(0.67723, 0.735772, -0.699944, 0.716154, -106.99636, -477.638044)"/>
  <ellipse style="stroke: rgba(0, 0, 0, 0); fill: rgb(178, 58, 238);" cx="658.082" cy="234.547" rx="26.48" ry="10.265" transform="matrix(0.67723, 0.735772, -0.699944, 0.716154, -136.972701, -444.058179)"/>
  <rect x="52.387" y="16.095" width="23.855" height="29.869" style="stroke: rgba(0, 0, 0, 0); fill: rgb(178, 58, 238);" transform="matrix(0.658877, 0.752251, -0.713494, 0.703126, 139.452225, 120.258995)"/>
  <path style="stroke: rgba(0, 0, 0, 0); fill: rgb(178, 58, 238);" d="M 119.289 228.201 L 110.146 242.358 L 123.779 232.713 L 119.289 228.201 Z"/>
  <rect x="6.317" y="54.446" width="6.064" height="23.733" style="stroke: rgba(179, 179, 179, 0); fill: rgb(146, 26, 206);" transform="matrix(0.68755, 0.726137, -0.685583, 0.73038, 237.263931, 300.273956)"/>
  <ellipse style="stroke: rgba(0, 0, 0, 0); fill: rgb(146, 26, 206);" cx="658.082" cy="234.547" rx="26.48" ry="10.265" transform="matrix(0.67723, 0.735772, -0.699944, 0.716154, -37.14125, -345.334974)"/>
  <ellipse style="stroke: rgba(0, 0, 0, 0); fill: rgb(146, 26, 206);" cx="658.082" cy="234.547" rx="26.48" ry="10.265" transform="matrix(0.67723, 0.735772, -0.699944, 0.716154, -67.117568, -311.755109)"/>
  <rect x="52.387" y="16.095" width="23.855" height="29.869" style="stroke: rgba(0, 0, 0, 0); fill: rgb(146, 26, 206);" transform="matrix(0.658877, 0.752251, -0.713494, 0.703126, 209.305771, 252.560959)"/>
  <path style="stroke: rgba(0, 0, 0, 0); fill: rgb(146, 26, 206);" d="M 189.143 360.504 L 180 374.661 L 193.633 365.016 L 189.143 360.504 Z"/>
  <rect x="-6.047" y="-51.596" width="5.805" height="22.491" style="stroke: rgba(179, 179, 179, 0); fill: rgb(146, 26, 206);" transform="matrix(-0.651564, 0.758594, 0.656249, 0.77072, 119.063188, 388.981876)"/>
  <ellipse style="stroke: rgba(0, 0, 0, 0); fill: rgb(146, 26, 206);" cx="658.082" cy="234.547" rx="25.382" ry="9.715" transform="matrix(-0.640911, 0.767615, 0.670908, 0.756737, 317.198114, -375.808661)"/>
  <ellipse style="stroke: rgba(0, 0, 0, 0); fill: rgb(146, 26, 206);" cx="658.082" cy="234.547" rx="25.382" ry="9.715" transform="matrix(-0.640911, 0.767615, 0.670908, 0.756737, 344.390009, -342.228796)"/>
  <rect x="-50.332" y="-15.196" width="22.92" height="28.2" style="stroke: rgba(0, 0, 0, 0); fill: rgb(146, 26, 206);" transform="matrix(-0.622074, 0.782959, 0.68551, 0.744725, 42.797309, 354.01064)"/>
  <path style="stroke: rgba(0, 0, 0, 0); fill: rgb(146, 26, 206);" d="M 107.095 374.661 L 98.802 360.504 L 111.169 370.149 L 107.095 374.661 Z" transform="matrix(-1, 0, 0, -1, 209.971001, 735.165009)"/>
  <rect x="-6.047" y="-51.596" width="5.805" height="22.491" style="stroke: rgba(179, 179, 179, 0); fill: rgb(146, 26, 206);" transform="matrix(-0.651564, 0.758594, 0.656249, 0.77072, 119.063096, 128.98183)"/>
  <ellipse style="stroke: rgba(0, 0, 0, 0); fill: rgb(146, 26, 206);" cx="658.082" cy="234.547" rx="25.382" ry="9.715" transform="matrix(-0.640911, 0.767615, 0.670908, 0.756737, 317.198176, -635.808661)"/>
  <ellipse style="stroke: rgba(0, 0, 0, 0); fill: rgb(146, 26, 206);" cx="658.082" cy="234.547" rx="25.382" ry="9.715" transform="matrix(-0.640911, 0.767615, 0.670908, 0.756737, 344.39007, -602.228827)"/>
  <rect x="-50.332" y="-15.196" width="22.92" height="28.2" style="stroke: rgba(0, 0, 0, 0); fill: rgb(146, 26, 206);" transform="matrix(-0.622074, 0.782959, 0.68551, 0.744725, 42.797217, 94.01061)"/>
  <path style="stroke: rgba(0, 0, 0, 0); fill: rgb(146, 26, 206);" d="M 107.095 114.661 L 98.802 100.504 L 111.169 110.149 L 107.095 114.661 Z" transform="matrix(-1, 0, 0, -1, 209.971001, 215.165001)"/>
  <rect x="6.047" y="51.596" width="5.805" height="22.491" style="stroke: rgba(179, 179, 179, 0); fill: rgb(146, 26, 206);" transform="matrix(-0.651564, 0.758594, 0.656249, 0.77072, -0.77675, 170.275265)"/>
  <ellipse style="stroke: rgba(0, 0, 0, 0); fill: rgb(146, 26, 206);" cx="658.082" cy="234.547" rx="25.382" ry="9.715" transform="matrix(-0.640911, 0.767615, 0.670908, 0.756737, 257.198114, -505.808661)"/>
  <ellipse style="stroke: rgba(0, 0, 0, 0); fill: rgb(146, 26, 206);" cx="658.082" cy="234.547" rx="25.382" ry="9.715" transform="matrix(-0.640911, 0.767615, 0.670908, 0.756737, 284.390009, -472.228827)"/>
  <rect x="50.332" y="15.196" width="22.92" height="28.2" style="stroke: rgba(0, 0, 0, 0); fill: rgb(146, 26, 206);" transform="matrix(-0.622074, 0.782959, 0.68551, 0.744725, 24.583417, 122.561168)"/>
  <path style="stroke: rgba(0, 0, 0, 0); fill: rgb(146, 26, 206);" d="M 47.095 244.661 L 38.802 230.504 L 51.169 240.149 L 47.095 244.661 Z" transform="matrix(-1, 0, 0, -1, 89.970997, 475.164993)"/>
  <rect x="6.317" y="54.446" width="6.064" height="23.733" style="stroke: rgba(179, 179, 179, 0); fill: rgb(146, 26, 206);" transform="matrix(0.68755, 0.726137, -0.685583, 0.73038, 307.264374, 170.273224)"/>
  <ellipse style="stroke: rgba(0, 0, 0, 0); fill: rgb(146, 26, 206);" cx="658.082" cy="234.547" rx="26.48" ry="10.265" transform="matrix(0.67723, 0.735772, -0.699944, 0.716154, 32.860234, -475.334974)"/>
  <ellipse style="stroke: rgba(0, 0, 0, 0); fill: rgb(146, 26, 206);" cx="658.082" cy="234.547" rx="26.48" ry="10.265" transform="matrix(0.67723, 0.735772, -0.699944, 0.716154, 2.88392, -441.755109)"/>
  <rect x="52.387" y="16.095" width="23.855" height="29.869" style="stroke: rgba(0, 0, 0, 0); fill: rgb(146, 26, 206);" transform="matrix(0.658877, 0.752251, -0.713494, 0.703126, 279.306213, 122.560219)"/>
  <path style="stroke: rgba(0, 0, 0, 0); fill: rgb(146, 26, 206);" d="M 259.143 230.503 L 250 244.66 L 263.633 235.015 L 259.143 230.503 Z"/>
</svg>