<?xml version="1.0" encoding="utf-8"?>
<svg viewBox="0 0 300 400" width="300" height="400" xmlns="http://www.w3.org/2000/svg">
  <path style="stroke-width: 3px; stroke: rgba(0, 0, 0, 0); fill: rgb(239, 90, 161);" d="M 0 0 L 0 400 L 300 400 L 300 100 L 200 0 L 0 0 Z"/>
  <path style="stroke: rgba(0, 0, 0, 0); fill: rgb(207, 58, 129);" d="M 200 0 L 200 100 L 300 100"/>
  <ellipse style="stroke: rgba(0, 0, 0, 0); fill: rgb(207, 58, 129);" cx="150" cy="200" rx="70" ry="70"/>
  <g transform="matrix(0.217131, 0, 0, 0.217131, 166.926926, 121.766853)">
    <g transform="translate(-48.907487,-55.625885)" id="layer1">
      <g id="g11476">
        <path d="M 2.284 489.054 L -52.61 489.054 L -52.61 480.739 C -52.61 466.59 -51.229 455.102 -48.466 446.277 C -45.703 437.452 -40.88 429.392 -35.416 422.099 C -29.953 414.805 -21.939 412.281 -2.849 393.901 C 7.324 384.273 14.896 365.136 14.896 357.112 C 15.606 335.889 10.422 327.531 3.802 319.842 C -3.477 312.505 -15.673 308.63 -25.408 308.63 C -34.326 308.63 -47.386 311.646 -53.581 318.089 C -61.907 324.533 -74.522 345.57 -71.893 366.762 L -134.332 367.396 C -134.332 308.781 -124.897 293.316 -102.552 269.329 C -80.918 249.055 -61.936 242.012 -24.278 242.012 C 4.521 242.012 27.69 248.65 44.519 261.923 C 67.376 279.866 83.777 303.377 83.777 347.718 C 83.777 364.242 77.629 381.566 69.951 395.565 C 64.049 407.09 50.571 420.341 32.006 434.496 C 18.256 444.102 10.604 454.3 7.277 461.374 C 3.948 468.45 2.284 477.676 2.284 489.054 Z" style="font-size: 1201.92px; font-style: normal; font-weight: normal; text-align: center; text-anchor: middle; fill-opacity: 1; stroke: none; stroke-width: 1px; stroke-linecap: butt; stroke-linejoin: miter; stroke-opacity: 1; font-family: &quot;Bitstream Vera Sans&quot;; fill: rgb(239, 90, 161);" id="path11472"/>
        <ellipse style="stroke: rgba(0, 0, 0, 0); fill: rgb(239, 90, 161);" cx="-23.642" cy="556.749" rx="35.993" ry="37.629"/>
      </g>
    </g>
  </g>
  <g transform="matrix(0.188041, 0.108566, -0.108566, 0.188041, 272.946686, 264.845337)">
    <g transform="translate(-48.907487,-55.625885)" id="g-1">
      <g id="g-2">
        <path d="M 2.284 489.054 L -52.61 489.054 L -52.61 480.739 C -52.61 466.59 -51.229 455.102 -48.466 446.277 C -45.703 437.452 -40.88 429.392 -35.416 422.099 C -29.953 414.805 -21.939 412.281 -2.849 393.901 C 7.324 384.273 14.896 365.136 14.896 357.112 C 15.606 335.889 10.422 327.531 3.802 319.842 C -3.477 312.505 -15.673 308.63 -25.408 308.63 C -34.326 308.63 -47.386 311.646 -53.581 318.089 C -61.907 324.533 -74.522 345.57 -71.893 366.762 L -134.332 367.396 C -134.332 308.781 -124.897 293.316 -102.552 269.329 C -80.918 249.055 -61.936 242.012 -24.278 242.012 C 4.521 242.012 27.69 248.65 44.519 261.923 C 67.376 279.866 83.777 303.377 83.777 347.718 C 83.777 364.242 77.629 381.566 69.951 395.565 C 64.049 407.09 50.571 420.341 32.006 434.496 C 18.256 444.102 10.604 454.3 7.277 461.374 C 3.948 468.45 2.284 477.676 2.284 489.054 Z" style="font-size: 1201.92px; font-style: normal; font-weight: normal; text-align: center; text-anchor: middle; fill-opacity: 1; stroke: none; stroke-width: 1px; stroke-linecap: butt; stroke-linejoin: miter; stroke-opacity: 1; font-family: &quot;Bitstream Vera Sans&quot;; fill: rgb(207, 58, 129);" id="path-1"/>
        <ellipse style="stroke: rgba(0, 0, 0, 0); fill: rgb(207, 58, 129);" cx="-23.642" cy="556.749" rx="35.993" ry="37.629"/>
      </g>
    </g>
  </g>
  <g transform="matrix(0.188041, 0.108566, -0.108566, 0.188041, 342.946686, 144.845352)">
    <g transform="translate(-48.907487,-55.625885)" id="g-3">
      <g id="g-4">
        <path d="M 2.284 489.054 L -52.61 489.054 L -52.61 480.739 C -52.61 466.59 -51.229 455.102 -48.466 446.277 C -45.703 437.452 -40.88 429.392 -35.416 422.099 C -29.953 414.805 -21.939 412.281 -2.849 393.901 C 7.324 384.273 14.896 365.136 14.896 357.112 C 15.606 335.889 10.422 327.531 3.802 319.842 C -3.477 312.505 -15.673 308.63 -25.408 308.63 C -34.326 308.63 -47.386 311.646 -53.581 318.089 C -61.907 324.533 -74.522 345.57 -71.893 366.762 L -134.332 367.396 C -134.332 308.781 -124.897 293.316 -102.552 269.329 C -80.918 249.055 -61.936 242.012 -24.278 242.012 C 4.521 242.012 27.69 248.65 44.519 261.923 C 67.376 279.866 83.777 303.377 83.777 347.718 C 83.777 364.242 77.629 381.566 69.951 395.565 C 64.049 407.09 50.571 420.341 32.006 434.496 C 18.256 444.102 10.604 454.3 7.277 461.374 C 3.948 468.45 2.284 477.676 2.284 489.054 Z" style="font-size: 1201.92px; font-style: normal; font-weight: normal; text-align: center; text-anchor: middle; fill-opacity: 1; stroke: none; stroke-width: 1px; stroke-linecap: butt; stroke-linejoin: miter; stroke-opacity: 1; font-family: &quot;Bitstream Vera Sans&quot;; fill: rgb(207, 58, 129);" id="path-2"/>
        <ellipse style="stroke: rgba(0, 0, 0, 0); fill: rgb(207, 58, 129);" cx="-23.642" cy="556.749" rx="35.993" ry="37.629"/>
      </g>
    </g>
  </g>
  <g transform="matrix(-0.188041, 0.108566, 0.108566, 0.188041, 16.321705, 264.845337)">
    <g transform="translate(-48.907487,-55.625885)" id="g-5">
      <g id="g-6">
        <path d="M 2.284 489.054 L -52.61 489.054 L -52.61 480.739 C -52.61 466.59 -51.229 455.102 -48.466 446.277 C -45.703 437.452 -40.88 429.392 -35.416 422.099 C -29.953 414.805 -21.939 412.281 -2.849 393.901 C 7.324 384.273 14.896 365.136 14.896 357.112 C 15.606 335.889 10.422 327.531 3.802 319.842 C -3.477 312.505 -15.673 308.63 -25.408 308.63 C -34.326 308.63 -47.386 311.646 -53.581 318.089 C -61.907 324.533 -74.522 345.57 -71.893 366.762 L -134.332 367.396 C -134.332 308.781 -124.897 293.316 -102.552 269.329 C -80.918 249.055 -61.936 242.012 -24.278 242.012 C 4.521 242.012 27.69 248.65 44.519 261.923 C 67.376 279.866 83.777 303.377 83.777 347.718 C 83.777 364.242 77.629 381.566 69.951 395.565 C 64.049 407.09 50.571 420.341 32.006 434.496 C 18.256 444.102 10.604 454.3 7.277 461.374 C 3.948 468.45 2.284 477.676 2.284 489.054 Z" style="font-size: 1201.92px; font-style: normal; font-weight: normal; text-align: center; text-anchor: middle; fill-opacity: 1; stroke: none; stroke-width: 1px; stroke-linecap: butt; stroke-linejoin: miter; stroke-opacity: 1; font-family: &quot;Bitstream Vera Sans&quot;; fill: rgb(207, 58, 129);" id="path-3"/>
        <ellipse style="stroke: rgba(0, 0, 0, 0); fill: rgb(207, 58, 129);" cx="-23.642" cy="556.749" rx="35.993" ry="37.629"/>
      </g>
    </g>
  </g>
  <g transform="matrix(-0.188041, 0.108566, 0.108566, 0.188041, -43.678295, 144.845352)">
    <g transform="translate(-48.907487,-55.625885)" id="g-7">
      <g id="g-8">
        <path d="M 2.284 489.054 L -52.61 489.054 L -52.61 480.739 C -52.61 466.59 -51.229 455.102 -48.466 446.277 C -45.703 437.452 -40.88 429.392 -35.416 422.099 C -29.953 414.805 -21.939 412.281 -2.849 393.901 C 7.324 384.273 14.896 365.136 14.896 357.112 C 15.606 335.889 10.422 327.531 3.802 319.842 C -3.477 312.505 -15.673 308.63 -25.408 308.63 C -34.326 308.63 -47.386 311.646 -53.581 318.089 C -61.907 324.533 -74.522 345.57 -71.893 366.762 L -134.332 367.396 C -134.332 308.781 -124.897 293.316 -102.552 269.329 C -80.918 249.055 -61.936 242.012 -24.278 242.012 C 4.521 242.012 27.69 248.65 44.519 261.923 C 67.376 279.866 83.777 303.377 83.777 347.718 C 83.777 364.242 77.629 381.566 69.951 395.565 C 64.049 407.09 50.571 420.341 32.006 434.496 C 18.256 444.102 10.604 454.3 7.277 461.374 C 3.948 468.45 2.284 477.676 2.284 489.054 Z" style="font-size: 1201.92px; font-style: normal; font-weight: normal; text-align: center; text-anchor: middle; fill-opacity: 1; stroke: none; stroke-width: 1px; stroke-linecap: butt; stroke-linejoin: miter; stroke-opacity: 1; font-family: &quot;Bitstream Vera Sans&quot;; fill: rgb(207, 58, 129);" id="path-4"/>
        <ellipse style="stroke: rgba(0, 0, 0, 0); fill: rgb(207, 58, 129);" cx="-23.642" cy="556.749" rx="35.993" ry="37.629"/>
      </g>
    </g>
  </g>
  <g transform="matrix(-0.188041, 0.108566, 0.108566, 0.188041, 16.321705, 24.845348)">
    <g transform="translate(-48.907487,-55.625885)" id="g-9">
      <g id="g-10">
        <path d="M 2.284 489.054 L -52.61 489.054 L -52.61 480.739 C -52.61 466.59 -51.229 455.102 -48.466 446.277 C -45.703 437.452 -40.88 429.392 -35.416 422.099 C -29.953 414.805 -21.939 412.281 -2.849 393.901 C 7.324 384.273 14.896 365.136 14.896 357.112 C 15.606 335.889 10.422 327.531 3.802 319.842 C -3.477 312.505 -15.673 308.63 -25.408 308.63 C -34.326 308.63 -47.386 311.646 -53.581 318.089 C -61.907 324.533 -74.522 345.57 -71.893 366.762 L -134.332 367.396 C -134.332 308.781 -124.897 293.316 -102.552 269.329 C -80.918 249.055 -61.936 242.012 -24.278 242.012 C 4.521 242.012 27.69 248.65 44.519 261.923 C 67.376 279.866 83.777 303.377 83.777 347.718 C 83.777 364.242 77.629 381.566 69.951 395.565 C 64.049 407.09 50.571 420.341 32.006 434.496 C 18.256 444.102 10.604 454.3 7.277 461.374 C 3.948 468.45 2.284 477.676 2.284 489.054 Z" style="font-size: 1201.92px; font-style: normal; font-weight: normal; text-align: center; text-anchor: middle; fill-opacity: 1; stroke: none; stroke-width: 1px; stroke-linecap: butt; stroke-linejoin: miter; stroke-opacity: 1; font-family: &quot;Bitstream Vera Sans&quot;; fill: rgb(207, 58, 129);" id="path-5"/>
        <ellipse style="stroke: rgba(0, 0, 0, 0); fill: rgb(207, 58, 129);" cx="-23.642" cy="556.749" rx="35.993" ry="37.629"/>
      </g>
    </g>
  </g>
</svg>