<?xml version="1.0" encoding="utf-8"?>
<svg viewBox="0 0 300 400" width="300" height="400" xmlns="http://www.w3.org/2000/svg" xmlns:bx="https://boxy-svg.com">
  <path style="stroke-width: 3px; stroke: rgba(0, 0, 0, 0); fill: rgb(208, 225, 125);" d="M 0 0 L 0 400 L 300 400 L 300 100 L 200 0 L 0 0 Z"/>
  <path style="stroke: rgba(0, 0, 0, 0); fill: rgb(176, 193, 61);" d="M 200 0 L 200 100 L 300 100"/>
  <rect style="stroke: rgba(0, 0, 0, 0); fill: rgb(176, 193, 61);" x="80" y="130" width="140" height="140" rx="40" ry="40"/>
  <path d="M 9.096 -17.45 L 39.096 32.55 L -20.904 32.55 L 9.096 -17.45 Z" style="fill: rgb(208, 225, 125); stroke: rgba(0, 0, 0, 0);" transform="matrix(0, 1, -1, 0, 162.550003, 200.903992)" bx:shape="triangle -20.904 -17.45 60 50 0.5 0 1@759aa78d"/>
  <path style="fill: rgb(208, 225, 125); stroke: rgba(0, 0, 0, 0);" d="M 125 130 L 135 145 L 125 160 L 115 160 L 125 145 L 115 130 L 125 130 Z"/>
  <path style="fill: rgb(208, 225, 125); stroke: rgba(0, 0, 0, 0);" d="M 105 130 L 115 145 L 105 160 L 95 160 L 105 145 L 95 130 L 105 130 Z"/>
  <path style="fill: rgb(208, 225, 125); stroke: rgba(0, 0, 0, 0);" d="M 145 130 L 155 145 L 145 160 L 135 160 L 145 145 L 135 130 L 145 130 Z"/>
  <path style="fill: rgb(208, 225, 125); stroke: rgba(0, 0, 0, 0);" d="M 85 130 L 95 145 L 85 160 L 75 160 L 85 145 L 75 130 L 85 130 Z"/>
  <path style="fill: rgb(208, 225, 125); stroke: rgba(0, 0, 0, 0);" d="M 165 130 L 175 145 L 165 160 L 155 160 L 165 145 L 155 130 L 165 130 Z"/>
  <path style="fill: rgb(208, 225, 125); stroke: rgba(0, 0, 0, 0);" d="M 185 130 L 195 145 L 185 160 L 175 160 L 185 145 L 175 130 L 185 130 Z"/>
  <path style="fill: rgb(208, 225, 125); stroke: rgba(0, 0, 0, 0);" d="M 205 130 L 215 145 L 205 160 L 195 160 L 205 145 L 195 130 L 205 130 Z"/>
  <path style="fill: rgb(208, 225, 125); stroke: rgba(0, 0, 0, 0);" d="M 225 130 L 235 145 L 225 160 L 215 160 L 225 145 L 215 130 L 225 130 Z"/>
  <rect x="34.358" y="64.77" width="50" height="40" style="fill: rgba(216, 216, 216, 0); stroke: rgb(176, 193, 61); stroke-width: 5px;" transform="matrix(0.866025, 0.5, -0.5, 0.866025, 51.290359, -13.630441)"/>
  <rect x="34.358" y="24.77" width="50" height="40" style="fill: rgba(216, 216, 216, 0); stroke: rgb(176, 193, 61); stroke-width: 5px;" transform="matrix(0.866025, 0.5, -0.5, 0.866025, 51.290359, -13.630441)"/>
  <path style="fill: rgba(216, 216, 216, 0); stroke: rgb(176, 193, 61); stroke-width: 5px;" d="M 84.358 24.77 H 89.358 A 5 5 0 0 1 94.358 29.77 V 34.77 H 84.358 V 24.77 Z" transform="matrix(0.866025, 0.5, -0.5, 0.866025, 51.290359, -13.630441)" bx:shape="rect 84.358 24.77 10 10 0 5 0 0 1@b578f465"/>
  <rect x="84.358" y="34.77" width="10" height="10" style="fill: rgba(216, 216, 216, 0); stroke: rgb(176, 193, 61); stroke-width: 5px;" transform="matrix(0.866025, 0.5, -0.5, 0.866025, 51.290359, -13.630441)"/>
  <rect x="84.358" y="44.77" width="10" height="10" style="fill: rgba(216, 216, 216, 0); stroke: rgb(176, 193, 61); stroke-width: 5px;" transform="matrix(0.866025, 0.5, -0.5, 0.866025, 51.290359, -13.630441)"/>
  <rect x="84.358" y="54.77" width="10" height="10" style="fill: rgba(216, 216, 216, 0); stroke: rgb(176, 193, 61); stroke-width: 5px;" transform="matrix(0.866025, 0.5, -0.5, 0.866025, 51.290359, -13.630441)"/>
  <rect x="84.358" y="64.77" width="10" height="10" style="fill: rgba(216, 216, 216, 0); stroke: rgb(176, 193, 61); stroke-width: 5px;" transform="matrix(0.866025, 0.5, -0.5, 0.866025, 51.290359, -13.630441)"/>
  <rect x="84.358" y="74.77" width="10" height="10" style="fill: rgba(216, 216, 216, 0); stroke: rgb(176, 193, 61); stroke-width: 5px;" transform="matrix(0.866025, 0.5, -0.5, 0.866025, 51.290359, -13.630441)"/>
  <rect x="84.358" y="84.77" width="10" height="10" style="fill: rgba(216, 216, 216, 0); stroke: rgb(176, 193, 61); stroke-width: 5px;" transform="matrix(0.866025, 0.5, -0.5, 0.866025, 51.290359, -13.630441)"/>
  <path style="fill: rgba(216, 216, 216, 0); stroke: rgb(176, 193, 61); stroke-width: 5px;" d="M 84.358 94.77 H 94.358 V 99.77 A 5 5 0 0 1 89.358 104.77 H 84.358 V 94.77 Z" transform="matrix(0.866025, 0.5, -0.5, 0.866025, 51.290359, -13.630441)" bx:shape="rect 84.358 94.77 10 10 0 0 5 0 1@fe046ab3"/>
  <path style="fill: rgba(216, 216, 216, 0); stroke: rgb(176, 193, 61); stroke-width: 5px;" d="M 29.358 24.77 H 34.358 V 34.77 H 24.358 V 29.77 A 5 5 0 0 1 29.358 24.77 Z" transform="matrix(0.866025, 0.5, -0.5, 0.866025, 51.290359, -13.630441)" bx:shape="rect 24.358 24.77 10 10 5 0 0 0 1@5185af4a"/>
  <rect x="24.358" y="34.77" width="10" height="10" style="fill: rgba(216, 216, 216, 0); stroke: rgb(176, 193, 61); stroke-width: 5px;" transform="matrix(0.866025, 0.5, -0.5, 0.866025, 51.290359, -13.630441)"/>
  <rect x="24.358" y="44.77" width="10" height="10" style="fill: rgba(216, 216, 216, 0); stroke: rgb(176, 193, 61); stroke-width: 5px;" transform="matrix(0.866025, 0.5, -0.5, 0.866025, 51.290359, -13.630441)"/>
  <rect x="24.358" y="54.77" width="10" height="10" style="fill: rgba(216, 216, 216, 0); stroke: rgb(176, 193, 61); stroke-width: 5px;" transform="matrix(0.866025, 0.5, -0.5, 0.866025, 51.290359, -13.630441)"/>
  <rect x="24.358" y="64.77" width="10" height="10" style="fill: rgba(216, 216, 216, 0); stroke: rgb(176, 193, 61); stroke-width: 5px;" transform="matrix(0.866025, 0.5, -0.5, 0.866025, 51.290359, -13.630441)"/>
  <rect x="24.358" y="74.77" width="10" height="10" style="fill: rgba(216, 216, 216, 0); stroke: rgb(176, 193, 61); stroke-width: 5px;" transform="matrix(0.866025, 0.5, -0.5, 0.866025, 51.290359, -13.630441)"/>
  <rect x="24.358" y="84.77" width="10" height="10" style="fill: rgba(216, 216, 216, 0); stroke: rgb(176, 193, 61); stroke-width: 5px;" transform="matrix(0.866025, 0.5, -0.5, 0.866025, 51.290359, -13.630441)"/>
  <path style="fill: rgba(216, 216, 216, 0); stroke: rgb(176, 193, 61); stroke-width: 5px;" d="M 24.358 94.77 H 34.358 V 104.77 H 29.358 A 5 5 0 0 1 24.358 99.77 V 94.77 Z" transform="matrix(0.866025, 0.5, -0.5, 0.866025, 51.290359, -13.630441)" bx:shape="rect 24.358 94.77 10 10 0 0 0 5 1@24b6cdfd"/>
  <rect x="34.358" y="64.77" width="50" height="40" style="fill: rgba(216, 216, 216, 0); stroke: rgb(176, 193, 61); stroke-width: 5px;" transform="matrix(0.866025, 0.5, -0.5, 0.866025, 51.290359, 246.369553)"/>
  <rect x="34.358" y="24.77" width="50" height="40" style="fill: rgba(216, 216, 216, 0); stroke: rgb(176, 193, 61); stroke-width: 5px;" transform="matrix(0.866025, 0.5, -0.5, 0.866025, 51.290359, 246.369553)"/>
  <path style="fill: rgba(216, 216, 216, 0); stroke: rgb(176, 193, 61); stroke-width: 5px;" d="M 84.358 24.77 H 89.358 A 5 5 0 0 1 94.358 29.77 V 34.77 H 84.358 V 24.77 Z" transform="matrix(0.866025, 0.5, -0.5, 0.866025, 51.290359, 246.369553)" bx:shape="rect 84.358 24.77 10 10 0 5 0 0 1@b578f465"/>
  <rect x="84.358" y="34.77" width="10" height="10" style="fill: rgba(216, 216, 216, 0); stroke: rgb(176, 193, 61); stroke-width: 5px;" transform="matrix(0.866025, 0.5, -0.5, 0.866025, 51.290359, 246.369553)"/>
  <rect x="84.358" y="44.77" width="10" height="10" style="fill: rgba(216, 216, 216, 0); stroke: rgb(176, 193, 61); stroke-width: 5px;" transform="matrix(0.866025, 0.5, -0.5, 0.866025, 51.290359, 246.369553)"/>
  <rect x="84.358" y="54.77" width="10" height="10" style="fill: rgba(216, 216, 216, 0); stroke: rgb(176, 193, 61); stroke-width: 5px;" transform="matrix(0.866025, 0.5, -0.5, 0.866025, 51.290359, 246.369553)"/>
  <rect x="84.358" y="64.77" width="10" height="10" style="fill: rgba(216, 216, 216, 0); stroke: rgb(176, 193, 61); stroke-width: 5px;" transform="matrix(0.866025, 0.5, -0.5, 0.866025, 51.290359, 246.369553)"/>
  <rect x="84.358" y="74.77" width="10" height="10" style="fill: rgba(216, 216, 216, 0); stroke: rgb(176, 193, 61); stroke-width: 5px;" transform="matrix(0.866025, 0.5, -0.5, 0.866025, 51.290359, 246.369553)"/>
  <rect x="84.358" y="84.77" width="10" height="10" style="fill: rgba(216, 216, 216, 0); stroke: rgb(176, 193, 61); stroke-width: 5px;" transform="matrix(0.866025, 0.5, -0.5, 0.866025, 51.290359, 246.369553)"/>
  <path style="fill: rgba(216, 216, 216, 0); stroke: rgb(176, 193, 61); stroke-width: 5px;" d="M 84.358 94.77 H 94.358 V 99.77 A 5 5 0 0 1 89.358 104.77 H 84.358 V 94.77 Z" transform="matrix(0.866025, 0.5, -0.5, 0.866025, 51.290359, 246.369553)" bx:shape="rect 84.358 94.77 10 10 0 0 5 0 1@fe046ab3"/>
  <path style="fill: rgba(216, 216, 216, 0); stroke: rgb(176, 193, 61); stroke-width: 5px;" d="M 29.358 24.77 H 34.358 V 34.77 H 24.358 V 29.77 A 5 5 0 0 1 29.358 24.77 Z" transform="matrix(0.866025, 0.5, -0.5, 0.866025, 51.290359, 246.369553)" bx:shape="rect 24.358 24.77 10 10 5 0 0 0 1@5185af4a"/>
  <rect x="24.358" y="34.77" width="10" height="10" style="fill: rgba(216, 216, 216, 0); stroke: rgb(176, 193, 61); stroke-width: 5px;" transform="matrix(0.866025, 0.5, -0.5, 0.866025, 51.290359, 246.369553)"/>
  <rect x="24.358" y="44.77" width="10" height="10" style="fill: rgba(216, 216, 216, 0); stroke: rgb(176, 193, 61); stroke-width: 5px;" transform="matrix(0.866025, 0.5, -0.5, 0.866025, 51.290359, 246.369553)"/>
  <rect x="24.358" y="54.77" width="10" height="10" style="fill: rgba(216, 216, 216, 0); stroke: rgb(176, 193, 61); stroke-width: 5px;" transform="matrix(0.866025, 0.5, -0.5, 0.866025, 51.290359, 246.369553)"/>
  <rect x="24.358" y="64.77" width="10" height="10" style="fill: rgba(216, 216, 216, 0); stroke: rgb(176, 193, 61); stroke-width: 5px;" transform="matrix(0.866025, 0.5, -0.5, 0.866025, 51.290359, 246.369553)"/>
  <rect x="24.358" y="74.77" width="10" height="10" style="fill: rgba(216, 216, 216, 0); stroke: rgb(176, 193, 61); stroke-width: 5px;" transform="matrix(0.866025, 0.5, -0.5, 0.866025, 51.290359, 246.369553)"/>
  <rect x="24.358" y="84.77" width="10" height="10" style="fill: rgba(216, 216, 216, 0); stroke: rgb(176, 193, 61); stroke-width: 5px;" transform="matrix(0.866025, 0.5, -0.5, 0.866025, 51.290359, 246.369553)"/>
  <path style="fill: rgba(216, 216, 216, 0); stroke: rgb(176, 193, 61); stroke-width: 5px;" d="M 24.358 94.77 H 34.358 V 104.77 H 29.358 A 5 5 0 0 1 24.358 99.77 V 94.77 Z" transform="matrix(0.866025, 0.5, -0.5, 0.866025, 51.290359, 246.369553)" bx:shape="rect 24.358 94.77 10 10 0 0 0 5 1@24b6cdfd"/>
  <rect x="34.358" y="64.77" width="50" height="40" style="fill: rgba(216, 216, 216, 0); stroke: rgb(176, 193, 61); stroke-width: 5px;" transform="matrix(0.866025, -0.5, 0.5, 0.866025, 146.520355, 305.727509)"/>
  <rect x="34.358" y="24.77" width="50" height="40" style="fill: rgba(216, 216, 216, 0); stroke: rgb(176, 193, 61); stroke-width: 5px;" transform="matrix(0.866025, -0.5, 0.5, 0.866025, 146.520355, 305.727509)"/>
  <path style="fill: rgba(216, 216, 216, 0); stroke: rgb(176, 193, 61); stroke-width: 5px;" d="M 84.358 24.77 H 89.358 A 5 5 0 0 1 94.358 29.77 V 34.77 H 84.358 V 24.77 Z" transform="matrix(0.866025, -0.5, 0.5, 0.866025, 146.520355, 305.727509)" bx:shape="rect 84.358 24.77 10 10 0 5 0 0 1@b578f465"/>
  <rect x="84.358" y="34.77" width="10" height="10" style="fill: rgba(216, 216, 216, 0); stroke: rgb(176, 193, 61); stroke-width: 5px;" transform="matrix(0.866025, -0.5, 0.5, 0.866025, 146.520355, 305.727509)"/>
  <rect x="84.358" y="44.77" width="10" height="10" style="fill: rgba(216, 216, 216, 0); stroke: rgb(176, 193, 61); stroke-width: 5px;" transform="matrix(0.866025, -0.5, 0.5, 0.866025, 146.520355, 305.727509)"/>
  <rect x="84.358" y="54.77" width="10" height="10" style="fill: rgba(216, 216, 216, 0); stroke: rgb(176, 193, 61); stroke-width: 5px;" transform="matrix(0.866025, -0.5, 0.5, 0.866025, 146.520355, 305.727509)"/>
  <rect x="84.358" y="64.77" width="10" height="10" style="fill: rgba(216, 216, 216, 0); stroke: rgb(176, 193, 61); stroke-width: 5px;" transform="matrix(0.866025, -0.5, 0.5, 0.866025, 146.520355, 305.727509)"/>
  <rect x="84.358" y="74.77" width="10" height="10" style="fill: rgba(216, 216, 216, 0); stroke: rgb(176, 193, 61); stroke-width: 5px;" transform="matrix(0.866025, -0.5, 0.5, 0.866025, 146.520355, 305.727509)"/>
  <rect x="84.358" y="84.77" width="10" height="10" style="fill: rgba(216, 216, 216, 0); stroke: rgb(176, 193, 61); stroke-width: 5px;" transform="matrix(0.866025, -0.5, 0.5, 0.866025, 146.520355, 305.727509)"/>
  <path style="fill: rgba(216, 216, 216, 0); stroke: rgb(176, 193, 61); stroke-width: 5px;" d="M 84.358 94.77 H 94.358 V 99.77 A 5 5 0 0 1 89.358 104.77 H 84.358 V 94.77 Z" transform="matrix(0.866025, -0.5, 0.5, 0.866025, 146.520355, 305.727509)" bx:shape="rect 84.358 94.77 10 10 0 0 5 0 1@fe046ab3"/>
  <path style="fill: rgba(216, 216, 216, 0); stroke: rgb(176, 193, 61); stroke-width: 5px;" d="M 29.358 24.77 H 34.358 V 34.77 H 24.358 V 29.77 A 5 5 0 0 1 29.358 24.77 Z" transform="matrix(0.866025, -0.5, 0.5, 0.866025, 146.520355, 305.727509)" bx:shape="rect 24.358 24.77 10 10 5 0 0 0 1@5185af4a"/>
  <rect x="24.358" y="34.77" width="10" height="10" style="fill: rgba(216, 216, 216, 0); stroke: rgb(176, 193, 61); stroke-width: 5px;" transform="matrix(0.866025, -0.5, 0.5, 0.866025, 146.520355, 305.727509)"/>
  <rect x="24.358" y="44.77" width="10" height="10" style="fill: rgba(216, 216, 216, 0); stroke: rgb(176, 193, 61); stroke-width: 5px;" transform="matrix(0.866025, -0.5, 0.5, 0.866025, 146.520355, 305.727509)"/>
  <rect x="24.358" y="54.77" width="10" height="10" style="fill: rgba(216, 216, 216, 0); stroke: rgb(176, 193, 61); stroke-width: 5px;" transform="matrix(0.866025, -0.5, 0.5, 0.866025, 146.520355, 305.727509)"/>
  <rect x="24.358" y="64.77" width="10" height="10" style="fill: rgba(216, 216, 216, 0); stroke: rgb(176, 193, 61); stroke-width: 5px;" transform="matrix(0.866025, -0.5, 0.5, 0.866025, 146.520355, 305.727509)"/>
  <rect x="24.358" y="74.77" width="10" height="10" style="fill: rgba(216, 216, 216, 0); stroke: rgb(176, 193, 61); stroke-width: 5px;" transform="matrix(0.866025, -0.5, 0.5, 0.866025, 146.520355, 305.727509)"/>
  <rect x="24.358" y="84.77" width="10" height="10" style="fill: rgba(216, 216, 216, 0); stroke: rgb(176, 193, 61); stroke-width: 5px;" transform="matrix(0.866025, -0.5, 0.5, 0.866025, 146.520355, 305.727509)"/>
  <path style="fill: rgba(216, 216, 216, 0); stroke: rgb(176, 193, 61); stroke-width: 5px;" d="M 24.358 94.77 H 34.358 V 104.77 H 29.358 A 5 5 0 0 1 24.358 99.77 V 94.77 Z" transform="matrix(0.866025, -0.5, 0.5, 0.866025, 146.520355, 305.727509)" bx:shape="rect 24.358 94.77 10 10 0 0 0 5 1@24b6cdfd"/>
  <rect x="34.358" y="64.77" width="50" height="40" style="fill: rgba(216, 216, 216, 0); stroke: rgb(176, 193, 61); stroke-width: 5px;" transform="matrix(0.866025, 0.5, -0.5, 0.866025, -38.709641, 116.36956)"/>
  <rect x="34.358" y="24.77" width="50" height="40" style="fill: rgba(216, 216, 216, 0); stroke: rgb(176, 193, 61); stroke-width: 5px;" transform="matrix(0.866025, 0.5, -0.5, 0.866025, -38.709641, 116.36956)"/>
  <path style="fill: rgba(216, 216, 216, 0); stroke: rgb(176, 193, 61); stroke-width: 5px;" d="M 84.358 24.77 H 89.358 A 5 5 0 0 1 94.358 29.77 V 34.77 H 84.358 V 24.77 Z" transform="matrix(0.866025, 0.5, -0.5, 0.866025, -38.709641, 116.36956)" bx:shape="rect 84.358 24.77 10 10 0 5 0 0 1@b578f465"/>
  <rect x="84.358" y="34.77" width="10" height="10" style="fill: rgba(216, 216, 216, 0); stroke: rgb(176, 193, 61); stroke-width: 5px;" transform="matrix(0.866025, 0.5, -0.5, 0.866025, -38.709641, 116.36956)"/>
  <rect x="84.358" y="44.77" width="10" height="10" style="fill: rgba(216, 216, 216, 0); stroke: rgb(176, 193, 61); stroke-width: 5px;" transform="matrix(0.866025, 0.5, -0.5, 0.866025, -38.709641, 116.36956)"/>
  <rect x="84.358" y="54.77" width="10" height="10" style="fill: rgba(216, 216, 216, 0); stroke: rgb(176, 193, 61); stroke-width: 5px;" transform="matrix(0.866025, 0.5, -0.5, 0.866025, -38.709641, 116.36956)"/>
  <rect x="84.358" y="64.77" width="10" height="10" style="fill: rgba(216, 216, 216, 0); stroke: rgb(176, 193, 61); stroke-width: 5px;" transform="matrix(0.866025, 0.5, -0.5, 0.866025, -38.709641, 116.36956)"/>
  <rect x="84.358" y="74.77" width="10" height="10" style="fill: rgba(216, 216, 216, 0); stroke: rgb(176, 193, 61); stroke-width: 5px;" transform="matrix(0.866025, 0.5, -0.5, 0.866025, -38.709641, 116.36956)"/>
  <rect x="84.358" y="84.77" width="10" height="10" style="fill: rgba(216, 216, 216, 0); stroke: rgb(176, 193, 61); stroke-width: 5px;" transform="matrix(0.866025, 0.5, -0.5, 0.866025, -38.709641, 116.36956)"/>
  <rect x="34.358" y="64.77" width="50" height="40" style="fill: rgba(216, 216, 216, 0); stroke: rgb(176, 193, 61); stroke-width: 5px;" transform="matrix(0.866025, -0.5, 0.5, 0.866025, 236.520355, 175.727554)"/>
  <rect x="34.358" y="24.77" width="50" height="40" style="fill: rgba(216, 216, 216, 0); stroke: rgb(176, 193, 61); stroke-width: 5px;" transform="matrix(0.866025, -0.5, 0.5, 0.866025, 236.520355, 175.727554)"/>
  <path style="fill: rgba(216, 216, 216, 0); stroke: rgb(176, 193, 61); stroke-width: 5px;" d="M 29.358 24.77 H 34.358 V 34.77 H 24.358 V 29.77 A 5 5 0 0 1 29.358 24.77 Z" transform="matrix(0.866025, -0.5, 0.5, 0.866025, 236.520355, 175.727554)" bx:shape="rect 24.358 24.77 10 10 5 0 0 0 1@5185af4a"/>
  <rect x="24.358" y="34.77" width="10" height="10" style="fill: rgba(216, 216, 216, 0); stroke: rgb(176, 193, 61); stroke-width: 5px;" transform="matrix(0.866025, -0.5, 0.5, 0.866025, 236.520355, 175.727554)"/>
  <rect x="24.358" y="44.77" width="10" height="10" style="fill: rgba(216, 216, 216, 0); stroke: rgb(176, 193, 61); stroke-width: 5px;" transform="matrix(0.866025, -0.5, 0.5, 0.866025, 236.520355, 175.727554)"/>
  <rect x="24.358" y="54.77" width="10" height="10" style="fill: rgba(216, 216, 216, 0); stroke: rgb(176, 193, 61); stroke-width: 5px;" transform="matrix(0.866025, -0.5, 0.5, 0.866025, 236.520355, 175.727554)"/>
  <rect x="24.358" y="64.77" width="10" height="10" style="fill: rgba(216, 216, 216, 0); stroke: rgb(176, 193, 61); stroke-width: 5px;" transform="matrix(0.866025, -0.5, 0.5, 0.866025, 236.520355, 175.727554)"/>
  <rect x="24.358" y="74.77" width="10" height="10" style="fill: rgba(216, 216, 216, 0); stroke: rgb(176, 193, 61); stroke-width: 5px;" transform="matrix(0.866025, -0.5, 0.5, 0.866025, 236.520355, 175.727554)"/>
  <rect x="24.358" y="84.77" width="10" height="10" style="fill: rgba(216, 216, 216, 0); stroke: rgb(176, 193, 61); stroke-width: 5px;" transform="matrix(0.866025, -0.5, 0.5, 0.866025, 236.520355, 175.727554)"/>
</svg>